<svg width="160" height="160" viewBox="0 0 160 160" fill="none" xmlns="http://www.w3.org/2000/svg">
<g clip-path="url(#clip0_26_3024)">
<g clip-path="url(#clip1_26_3024)">
<path d="M34.0374 102.944L51.4562 79.0625C56.7052 84.4505 59.7386 91.6138 59.9552 99.1329C60.1718 106.652 57.5558 113.978 52.6257 119.659C47.6955 125.34 40.811 128.962 33.3364 129.807C25.8618 130.652 18.3427 128.658 12.269 124.22C6.19532 119.782 2.01039 113.225 0.543541 105.847C-0.923313 98.4691 0.434957 90.8095 4.34918 84.386C8.26341 77.9625 14.4479 73.2438 21.6772 71.165C28.9064 69.0863 36.6528 69.7992 43.3812 73.1625L25.9624 97.0562C25.5471 97.5844 25.2426 98.1909 25.0669 98.8394C24.8912 99.4879 24.8481 100.165 24.94 100.831C25.0319 101.496 25.2571 102.137 25.602 102.713C25.9468 103.29 26.4044 103.791 26.9473 104.187C27.4902 104.583 28.1073 104.865 28.7618 105.017C29.4162 105.169 30.0946 105.188 30.7564 105.072C31.4182 104.955 32.0498 104.707 32.6136 104.342C33.1773 103.976 33.6615 103.501 34.0374 102.944ZM130 70C126.385 69.9984 122.8 70.6528 119.419 71.9312L134.319 97.5C134.697 98.0685 134.955 98.7085 135.077 99.3806C135.199 100.053 135.181 100.743 135.026 101.408C134.871 102.073 134.581 102.699 134.174 103.248C133.768 103.797 133.253 104.257 132.662 104.599C132.071 104.941 131.416 105.158 130.737 105.238C130.059 105.317 129.372 105.256 128.717 105.06C128.063 104.863 127.457 104.535 126.934 104.094C126.412 103.654 125.986 103.111 125.681 102.5L110.787 76.9625C105.368 81.4829 101.716 87.769 100.473 94.7156C99.2299 101.662 100.476 108.825 103.991 114.944C107.506 121.063 113.066 125.747 119.693 128.173C126.32 130.598 133.59 130.609 140.225 128.205C146.86 125.801 152.435 121.134 155.969 115.026C159.504 108.918 160.772 101.76 159.551 94.8092C158.33 87.8586 154.698 81.561 149.293 77.0235C143.888 72.486 137.057 69.9991 130 70ZM103.706 45H120C121.326 45 122.598 45.5268 123.535 46.4645C124.473 47.4021 125 48.6739 125 50C125 51.3261 125.527 52.5979 126.464 53.5355C127.402 54.4732 128.674 55 130 55C131.326 55 132.598 54.4732 133.535 53.5355C134.473 52.5979 135 51.3261 135 50C135 46.0218 133.42 42.2064 130.607 39.3934C127.793 36.5804 123.978 35 120 35H94.9999C94.1232 35.002 93.2624 35.2345 92.5039 35.6741C91.7454 36.1138 91.1158 36.7452 90.6783 37.5049C90.2408 38.2647 90.0108 39.1261 90.0113 40.0028C90.0118 40.8796 90.2428 41.7407 90.6812 42.5L97.9624 55H62.0374L51.8187 37.5C51.3808 36.7416 50.7514 36.1115 49.9935 35.6727C49.2355 35.234 48.3757 35.002 47.4999 35H29.9999C28.6738 35 27.402 35.5268 26.4644 36.4645C25.5267 37.4021 24.9999 38.6739 24.9999 40C24.9999 41.3261 25.5267 42.5979 26.4644 43.5355C27.402 44.4732 28.6738 45 29.9999 45H44.6312L53.1999 59.6938L43.3812 73.1625C46.3848 74.6622 49.1146 76.6567 51.4562 79.0625L58.6999 69.125L78.1812 102.5C78.4856 103.111 78.9121 103.654 79.4343 104.094C79.9565 104.535 80.5634 104.863 81.2175 105.06C81.8716 105.256 82.5591 105.317 83.2375 105.238C83.9159 105.158 84.5709 104.941 85.162 104.599C85.7531 104.257 86.2679 103.797 86.6745 103.248C87.0811 102.699 87.371 102.073 87.5262 101.408C87.6814 100.743 87.6988 100.053 87.5771 99.3806C87.4554 98.7085 87.1973 98.0685 86.8187 97.5L67.8687 65H103.794L110.787 76.9812C113.362 74.8279 116.28 73.121 119.419 71.9312L103.706 45Z" fill="white"/>
</g>
</g>
<defs>
<clipPath id="clip0_26_3024">
<rect width="160" height="160" fill="white"/>
</clipPath>
<clipPath id="clip1_26_3024">
<rect width="160" height="160" fill="white"/>
</clipPath>
</defs>
</svg>
