<svg width="160" height="160" viewBox="0 0 160 160" fill="none" xmlns="http://www.w3.org/2000/svg">
<g clip-path="url(#clip0_26_2869)">
<path d="M74.9999 35C74.9999 31.0444 76.1729 27.1776 78.3705 23.8886C80.5681 20.5996 83.6917 18.0362 87.3462 16.5224C91.0007 15.0087 95.0221 14.6126 98.9017 15.3843C102.781 16.156 106.345 18.0608 109.142 20.8579C111.939 23.6549 113.844 27.2186 114.616 31.0982C115.387 34.9778 114.991 38.9992 113.477 42.6537C111.964 46.3082 109.4 49.4318 106.111 51.6294C102.822 53.827 98.9555 55 94.9999 55C89.6956 55 84.6085 52.8929 80.8578 49.1421C77.107 45.3914 74.9999 40.3043 74.9999 35ZM139.55 81.3C139.28 80.7002 138.894 80.1597 138.415 79.7092C137.935 79.2588 137.372 78.9074 136.756 78.6752C136.141 78.443 135.486 78.3344 134.828 78.3559C134.171 78.3773 133.524 78.5282 132.925 78.8C132.769 78.875 116.231 85.5 87.8124 66.1813C55.1311 43.9688 32.8124 61.325 31.8686 62.075C31.3332 62.4773 30.8839 62.983 30.5477 63.5623C30.2114 64.1415 29.9949 64.7823 29.9111 65.4468C29.8273 66.1113 29.8778 66.7859 30.0597 67.4304C30.2416 68.075 30.5511 68.6765 30.9699 69.1992C31.3887 69.7218 31.9082 70.155 32.4977 70.473C33.0871 70.791 33.7344 70.9874 34.4012 71.0504C35.068 71.1135 35.7406 71.0419 36.3792 70.84C37.0178 70.6381 37.6093 70.3099 38.1186 69.875C38.2811 69.7438 53.8186 57.6875 78.1624 71.9188C75.5061 80.2625 70.1874 91.8063 62.3811 101.294C50.7811 115.344 36.6874 121.644 20.5061 120.044C19.1859 119.91 17.8666 120.307 16.8387 121.146C15.8108 121.985 15.1583 123.198 15.0249 124.519C14.8915 125.839 15.288 127.158 16.1272 128.186C16.9664 129.214 18.1796 129.867 19.4999 130C21.4395 130.197 23.3878 130.295 25.3374 130.294C42.4499 130.294 57.8374 122.556 70.1061 107.681C70.4624 107.25 70.8186 106.806 71.1624 106.369C83.3186 109.556 105 118.938 105 145C105 146.326 105.527 147.598 106.464 148.536C107.402 149.473 108.674 150 110 150C111.326 150 112.598 149.473 113.535 148.536C114.473 147.598 115 146.326 115 145C115 129.594 108.7 116.656 96.7811 107.588C90.8629 103.213 84.2464 99.8716 77.2124 97.7063C81.139 91.3316 84.3779 84.5583 86.8749 77.5C103.212 87.5563 116.15 90 124.806 90C132.419 90 136.719 88.125 137.1 87.95C137.698 87.6754 138.237 87.2853 138.684 86.802C139.131 86.3188 139.479 85.7519 139.707 85.134C139.934 84.5161 140.038 83.8594 140.011 83.2014C139.984 82.5434 139.827 81.8973 139.55 81.3Z" fill="white"/>
</g>
<defs>
<clipPath id="clip0_26_2869">
<rect width="160" height="160" fill="white"/>
</clipPath>
</defs>
</svg>
