<svg width="160" height="160" viewBox="0 0 160 160" fill="none" xmlns="http://www.w3.org/2000/svg">
<g clip-path="url(#clip0_26_2558)">
<path d="M134.7 123.287C135.025 124.181 135.089 125.15 134.883 126.079C134.677 127.007 134.21 127.858 133.538 128.531L118.538 143.531C118.073 143.996 117.522 144.366 116.915 144.618C116.308 144.87 115.657 145 115 145C114.836 145.009 114.671 145.009 114.506 145C113.77 144.927 113.059 144.692 112.425 144.312C111.79 143.932 111.248 143.415 110.838 142.8L83.2938 101.475L70 114.744V130C69.9994 131.324 69.4735 132.594 68.5376 133.531C68.5376 133.531 59.7875 142.319 58.6125 143.456C58.1241 143.968 57.5316 144.368 56.875 144.631C55.6514 145.13 54.2802 145.123 53.0611 144.614C51.8419 144.104 50.874 143.133 50.3688 141.912L50.3313 141.819L41.1438 118.844L18.125 109.637C17.3572 109.33 16.6775 108.837 16.1468 108.203C15.6162 107.568 15.2513 106.812 15.0847 106.002C14.9181 105.192 14.955 104.353 15.1922 103.561C15.4294 102.769 15.8595 102.048 16.4438 101.462L26.4438 91.4623C26.9107 90.9959 27.4653 90.6265 28.0757 90.3755C28.6861 90.1245 29.3401 89.9968 30 89.9998H45.25L58.5438 76.7061L17.225 49.1561C16.6088 48.7458 16.0913 48.2039 15.71 47.5693C15.3287 46.9347 15.093 46.2234 15.0201 45.4867C14.9471 44.7499 15.0387 44.0062 15.2881 43.3092C15.5376 42.6122 15.9387 41.9792 16.4625 41.4561L31.4625 26.4561C32.1354 25.7835 32.9862 25.3169 33.9151 25.1109C34.8439 24.905 35.8122 24.9684 36.7063 25.2936L90.4188 44.8248L110.125 25.1186C113.407 21.8365 117.859 19.9927 122.5 19.9927C124.798 19.9927 127.074 20.4453 129.197 21.3249C131.321 22.2044 133.25 23.4935 134.875 25.1186C136.5 26.7437 137.789 28.673 138.669 30.7963C139.548 32.9196 140.001 35.1953 140.001 37.4936C140.001 39.7918 139.548 42.0676 138.669 44.1909C137.789 46.3142 136.5 48.2435 134.875 49.8686L115.169 69.5748L134.7 123.287Z" fill="white"/>
</g>
<defs>
<clipPath id="clip0_26_2558">
<rect width="160" height="160" fill="white"/>
</clipPath>
</defs>
</svg>
