<svg width="160" height="160" viewBox="0 0 160 160" fill="none" xmlns="http://www.w3.org/2000/svg">
<g clip-path="url(#clip0_26_3329)">
<g clip-path="url(#clip1_26_3329)">
<path d="M100 87.4998V45.5311C99.9943 45.0209 100.145 44.5212 100.431 44.0991C100.718 43.677 101.127 43.3526 101.603 43.1696C102.079 42.9866 102.6 42.9537 103.096 43.0753C103.591 43.1969 104.038 43.4671 104.375 43.8498L138.75 81.6373C139.54 82.5048 140 83.6225 140.049 84.7948C140.098 85.9671 139.733 87.1193 139.019 88.0498C138.528 88.6682 137.903 89.1657 137.19 89.5038C136.477 89.8419 135.695 90.0116 134.906 89.9998H102.5C101.837 89.9998 101.201 89.7364 100.732 89.2676C100.263 88.7987 100 88.1629 100 87.4998ZM154.506 107.831C154.098 106.983 153.458 106.267 152.661 105.766C151.864 105.265 150.941 105 150 105H90V4.99982C89.9944 3.96919 89.6705 2.96547 89.0725 2.12602C88.4746 1.28657 87.6318 0.6524 86.6596 0.310313C85.6874 -0.031774 84.6332 -0.0650671 83.6414 0.21499C82.6495 0.495047 81.7684 1.07477 81.1187 1.87482L16.1187 81.8748C15.5311 82.6087 15.1623 83.4934 15.0547 84.4274C14.947 85.3613 15.1049 86.3067 15.5101 87.1551C15.9154 88.0034 16.5516 88.7203 17.3457 89.2234C18.1399 89.7266 19.0598 89.9957 20 89.9998H80V105H9.99996C9.05769 104.999 8.13444 105.265 7.33661 105.766C6.53878 106.268 5.89884 106.984 5.49057 107.833C5.08229 108.683 4.92229 109.63 5.029 110.566C5.13571 111.502 5.50479 112.389 6.09371 113.125L24.5937 136.25C25.5285 137.422 26.716 138.369 28.0677 139.018C29.4195 139.667 30.9004 140.003 32.4 140H127.6C129.1 140.003 130.58 139.667 131.932 139.018C133.284 138.369 134.471 137.422 135.406 136.25L153.906 113.125C154.495 112.389 154.864 111.501 154.97 110.565C155.076 109.628 154.915 108.68 154.506 107.831Z" fill="white"/>
</g>
</g>
<defs>
<clipPath id="clip0_26_3329">
<rect width="160" height="160" fill="white"/>
</clipPath>
<clipPath id="clip1_26_3329">
<rect width="160" height="160" fill="white"/>
</clipPath>
</defs>
</svg>
